#N canvas 948 256 1349 1028 12;
#X obj 312 405 netsend -u -b;
#X msg 343 367 connect 127.0.0.1 8001;
#X obj 301 55 oscformat -f f play;
#X obj 334 113 oscformat -f f stop;
#X msg 306 20 1;
#X msg 355 79 1, f 2;
#X text 402 19 /play 1;
#X text 387 76 /stop 1;
#X obj 390 276 oscformat -f f master volume;
#X floatatom 395 193 5 0 0 0 - - - 0;
#X msg 445 220 0.5;
#X obj 399 163 hsl 162 19 0 1 0 0 empty empty empty -2 -10 0 12 #606060 #000000 #000000 0 1;
#X obj 80 121 comport;
#X msg 21 68 devices;
#X obj 87 175 pdchoco/slip_parse;
#X obj 92 214 oscparse;
#X obj 89 249 list trim;
#X msg 106 35 close;
#X msg 125 66 baud 115200 \, open 7;
#X floatatom 192 371 5 0 0 0 - - - 0;
#X obj 94 302 route Bouton angle;
#X obj 58 388 tgl 19 0 empty empty empty 0 -10 0 12 #fcfcfc #000000 #000000 0 1;
#X msg 456 404 disconect;
#X obj 155 114 select 0 1;
#X connect 1 0 0 0;
#X connect 2 0 0 0;
#X connect 3 0 0 0;
#X connect 4 0 2 0;
#X connect 5 0 3 0;
#X connect 8 0 0 0;
#X connect 9 0 8 0;
#X connect 10 0 8 0;
#X connect 11 0 9 0;
#X connect 12 0 14 0;
#X connect 13 0 12 0;
#X connect 14 0 15 0;
#X connect 15 0 16 0;
#X connect 16 0 20 0;
#X connect 17 0 12 0;
#X connect 18 0 12 0;
#X connect 20 0 21 0;
#X connect 20 1 19 0;
#X connect 22 0 0 0;
