#N canvas -101 82 2560 1464 12;
#X obj 996 653 netsend -u -b;
#X msg 1027 615 connect 127.0.0.1 8001;
#X obj 918 307 oscformat -f f play;
#X obj 1088 355 oscformat -f f stop;
#X msg 915 247 1;
#X msg 1161 301 1, f 2;
#X text 984 343 /play 1;
#X text 1178 372 /stop 1;
#X obj 1074 524 oscformat -f f master volume;
#X msg 1129 468 0.5;
#X obj 1130 411 hsl 162 19 0 1 0 0 empty empty empty -2 -10 0 12 #606060 #000000 #000000 0 1;
#X obj 80 121 comport;
#X msg 21 68 devices;
#X obj 97 175 pdchoco/slip_parse;
#X obj 92 214 oscparse;
#X obj 89 249 list trim;
#X msg 106 35 close;
#X msg 125 66 baud 115200 \, open 7;
#X floatatom 155 350 5 0 0 0 - - - 0;
#X obj 94 302 route Bouton angle;
#X obj 156 407 tgl 19 0 empty empty empty 0 -10 0 12 #fcfcfc #000000 #000000 0 1;
#X msg 1140 652 disconect;
#X obj 980 120 select 0 1;
#X msg 1001 34 1;
#X msg 953 29 0;
#X obj 973 193 bng 19 250 50 0 empty empty empty 0 -10 0 12 #fcfcfc #000000 #000000;
#X obj 1026 193 bng 19 250 50 0 empty empty empty 0 -10 0 12 #fcfcfc #000000 #000000;
#X obj 862 64 tgl 19 0 empty empty empty 0 -10 0 12 #fcfcfc #000000 #000000 0 1;
#X obj 235 387 change;
#X obj 427 484 pdchoco/stream_flip_flop;
#X obj 430 518 change;
#X obj 488 568 tgl 19 0 empty empty empty 0 -10 0 12 #fcfcfc #000000 #000000 0 1;
#X obj 458 218 oscformat -f i vkb_midi 0 note 60;
#X msg 490 134 127;
#X msg 443 134 0;
#X obj 678 600 nbx 5 17 -1e+37 1e+37 0 0 empty empty empty 0 -10 0 12 #fcfcfc #000000 #000000 0 256;
#X obj 680 672 oscformat -f i vkb_midi 0 cc 14;
#X obj 415 610 * 127;
#X obj 520 662 / 4095;
#X obj 1082 443 nbx 5 17 -1e+37 1e+37 0 0 empty empty empty 0 -10 0 12 #fcfcfc #000000 #000000 0 256;
#X obj 556 556 pdchoco/stream_smooth 0.1 0.1;
#X connect 1 0 0 0;
#X connect 2 0 0 0;
#X connect 3 0 0 0;
#X connect 4 0 2 0;
#X connect 5 0 3 0;
#X connect 8 0 0 0;
#X connect 9 0 8 0;
#X connect 10 0 39 0;
#X connect 11 0 13 0;
#X connect 12 0 11 0;
#X connect 13 0 14 0;
#X connect 14 0 15 0;
#X connect 15 0 19 0;
#X connect 16 0 11 0;
#X connect 17 0 11 0;
#X connect 18 0 37 0;
#X connect 19 0 20 0;
#X connect 19 1 18 0;
#X connect 20 0 28 0;
#X connect 20 0 29 0;
#X connect 21 0 0 0;
#X connect 22 0 25 0;
#X connect 22 1 26 0;
#X connect 23 0 22 0;
#X connect 24 0 22 0;
#X connect 25 0 4 0;
#X connect 26 0 5 0;
#X connect 27 0 22 0;
#X connect 29 0 30 0;
#X connect 30 0 31 0;
#X connect 31 0 27 0;
#X connect 32 0 0 0;
#X connect 33 0 32 0;
#X connect 34 0 32 0;
#X connect 35 0 36 0;
#X connect 36 0 0 0;
#X connect 37 0 38 0;
#X connect 38 0 40 0;
#X connect 39 0 8 0;
#X connect 40 0 35 0;
