#N canvas 948 256 1093 1028 12;
#X obj 42 391 netsend -u -b;
#X msg 73 353 connect 127.0.0.1 8001;
#X obj 31 41 oscformat -f f play;
#X obj 64 99 oscformat -f f stop;
#X msg 36 6 1;
#X msg 85 65 1, f 2;
#X text 132 5 /play 1;
#X text 117 62 /stop 1;
#X obj 120 262 oscformat -f f master volume;
#X floatatom 125 179 5 0 0 0 - - - 0;
#X msg 175 206 0.5;
#X obj 118 140 hsl 162 19 0 127 0 0 empty empty empty -2 -10 0 12 #fcfcfc #000000 #000000 0 1;
#X connect 1 0 0 0;
#X connect 2 0 0 0;
#X connect 3 0 0 0;
#X connect 4 0 2 0;
#X connect 5 0 3 0;
#X connect 8 0 0 0;
#X connect 9 0 8 0;
#X connect 10 0 8 0;
#X connect 11 0 9 0;
